<svg width="392.598" height="392.598" xmlns="http://www.w3.org/2000/svg" xml:space="preserve" version="1.1">

 <g>
  <title>Layer 1</title>
     <path id="svg_1" fill="#FFC10D"
           d="m588.78,2.711c0,-6.012 -4.848,-10.925 -10.925,-10.925l-88.63,0l0,99.426l99.426,0l0,-88.501l0.129,0z"/>
     <rect id="svg_2" fill="#FFFFFF" height="106.408" width="99.426" y="143.127" x="271.224"/>
     <g id="svg_3">
   <path id="svg_4" fill="#194F82"
         d="m321.002,30.901c-21.398,0 -38.853,17.455 -38.853,38.853s17.455,38.853 38.853,38.853c21.398,0 38.853,-17.455 38.853,-38.853s-17.455,-38.853 -38.853,-38.853zm0,55.855c-9.438,0 -17.002,-7.628 -17.002,-17.002s7.628,-17.002 17.002,-17.002c9.374,0 17.002,7.628 17.002,17.002s-7.564,17.002 -17.002,17.002z"/>
         <path id="svg_5" fill="#194F82"
               d="m317.446,231.822c21.398,0 38.853,-17.455 38.853,-38.853s-17.455,-38.853 -38.853,-38.853s-38.853,17.455 -38.853,38.853s17.391,38.853 38.853,38.853zm0,-55.854c9.438,0 17.002,7.628 17.002,17.002c0,9.374 -7.628,17.002 -17.002,17.002c-9.374,0 -17.002,-7.628 -17.002,-17.002c0,-9.374 7.564,-17.002 17.002,-17.002z"/>
         <path id="svg_6" fill="#194F82"
               d="m66.424,104.339c21.398,0 38.853,-17.455 38.853,-38.853s-17.455,-38.852 -38.853,-38.852s-38.852,17.455 -38.852,38.918s17.325,38.787 38.852,38.787zm0,-55.919c9.438,0 17.002,7.628 17.002,17.002s-7.628,17.002 -17.002,17.002s-17.002,-7.628 -17.002,-17.002c0,-9.309 7.564,-17.002 17.002,-17.002z"/>
  </g>
     <rect id="svg_7" fill="#56ACE0" height="99.426" width="106.408" y="21.786" x="143.16"/>
     <rect id="svg_8" fill="#FFFFFF" height="106.408" width="106.408" y="143.127" x="143.16"/>
     <g id="svg_9">
   <rect id="svg_10" fill="#FFC10D" height="99.426" width="106.408" y="167.321" x="555.16"/>
         <rect id="svg_11" fill="#FFC10D" height="106.408" width="99.426" y="39.127" x="433.818"/>
  </g>
     <path id="svg_15" fill="#FFFFFF"
           d="m321.002,52.687c-9.438,0 -17.002,7.628 -17.002,17.002s7.628,17.002 17.002,17.002c9.374,0 17.002,-7.628 17.002,-17.002s-7.564,-17.002 -17.002,-17.002z"/>
     <rect stroke="null" id="svg_23" fill="#56ACE0" height="104.426" width="110.40801" y="268.786" x="17.16"/>
     <rect stroke="null" id="svg_24" fill="#56ACE0" height="113.426" width="114.40801" y="142.786" x="139.16"/>
     <g id="svg_16">
   <path id="svg_17" fill="#194F82"
         d="m166.756,225.81c4.267,4.267 11.119,4.267 15.451,0l14.093,-14.093l14.158,14.158c4.267,4.267 11.119,4.267 15.451,0c4.267,-4.267 4.267,-11.119 0,-15.451l-14.158,-14.158l14.158,-14.158c4.267,-4.267 4.267,-11.119 0,-15.451c-4.267,-4.267 -11.119,-4.267 -15.451,0l-14.158,14.158l-14.158,-14.158c-4.267,-4.267 -11.119,-4.267 -15.451,0c-4.267,4.267 -4.267,11.119 0,15.451l14.158,14.158l-14.158,14.158c-4.267,4.202 -4.267,11.119 0.065,15.386z"/>
         <path id="svg_18" fill="#194F82"
               d="m166.756,99.297c4.267,4.267 11.119,4.267 15.451,0l14.158,-14.158l14.158,14.158c4.267,4.267 11.119,4.267 15.451,0c4.267,-4.267 4.267,-11.119 0,-15.451l-14.222,-14.158l14.158,-14.158c4.267,-4.267 4.267,-11.119 0,-15.451c-4.267,-4.267 -11.119,-4.267 -15.451,0l-14.158,14.222l-14.158,-14.158c-4.267,-4.267 -11.119,-4.267 -15.451,0c-4.331,4.267 -4.267,11.119 0,15.451l14.158,14.093l-14.158,14.158c-4.268,4.268 -4.268,11.185 0.064,15.452z"/>
         <path id="svg_19" fill="#194F82"
               d="m36.816,351.677c4.267,4.267 11.119,4.267 15.451,0l14.158,-14.158l14.158,14.158c4.267,4.267 11.119,4.267 15.451,0c4.267,-4.267 4.267,-11.119 0,-15.451l-14.158,-14.158l14.158,-14.158c4.267,-4.267 4.267,-11.119 0,-15.451c-4.267,-4.331 -11.119,-4.267 -15.451,0l-14.158,14.158l-14.158,-14.158c-4.267,-4.267 -11.119,-4.267 -15.451,0c-4.331,4.267 -4.267,11.119 0,15.451l14.158,14.158l-14.158,14.158c-4.266,4.332 -4.266,11.184 0,15.451z"/>
         <path id="svg_20" fill="#194F82"
               d="m359.855,0l-327.112,0c-18.036,0 -32.711,14.675 -32.711,32.711l0,327.111c0,18.101 14.675,32.776 32.711,32.776l327.111,0c18.036,0 32.711,-14.675 32.711,-32.711l0,-327.176c0.001,-18.036 -14.674,-32.711 -32.71,-32.711zm-238.611,370.747l-88.501,0c-6.012,0 -10.925,-4.848 -10.925,-10.925l0,-88.566l99.426,0l0,99.491zm0,-121.341l-99.426,0l0,-106.279l99.426,0l0,106.279zm0,-128.194l-99.426,0l0,-88.501c0,-6.012 4.848,-10.925 10.925,-10.925l88.566,0l0,99.426l-0.065,0zm128.194,249.535l-106.278,0l0,-99.426l106.408,0l0,99.426l-0.13,0l0,0zm0,-121.341l-106.278,0l0,-106.279l106.408,0l0,106.343l-0.13,-0.064l0,0zm0,-128.194l-106.278,0l0,-99.426l106.408,0l0,99.426l-0.13,0zm121.342,238.61c0,6.012 -4.848,10.925 -10.925,10.925l-88.63,0l0,-99.426l99.426,0l0,88.566l0.129,-0.065l0,0zm0,-110.416l-99.556,0l0,-106.279l99.426,0l0,106.343l0.13,-0.064l0,0zm0,-128.194l-99.556,0l0,-99.426l88.566,0c6.012,0 10.925,4.848 10.925,10.925l0,88.566l0.065,0l0,-0.065z"/>
  </g>
     <rect id="svg_21" height="128" width="204" y="53.799" x="-241.70099" stroke="#000" fill="#fff"/>
 </g>
</svg>